<?xml version="1.0" encoding="UTF-8"?><svg id="uuid-712d945c-4ef6-4fd9-ae76-1e0365a56b2d" xmlns="http://www.w3.org/2000/svg" viewBox="0 0 42.46 43.8"><defs><style>.uuid-0c94c907-2e50-4096-a13e-543787b29d33{fill:none;stroke:#000;stroke-miterlimit:10;stroke-width:3px;}</style></defs><path d="M23.73,27.11v16.69h-5v-16.69c.77.33,1.61.51,2.5.51s1.73-.18,2.5-.51Z"/><path class="uuid-0c94c907-2e50-4096-a13e-543787b29d33" d="M27.62,21.23c0,2.64-1.6,4.91-3.89,5.88-.77.33-1.61.51-2.5.51s-1.73-.18-2.5-.51c-2.29-.97-3.89-3.24-3.89-5.88,0-.85.16-1.65.46-2.39.65-1.61,1.93-2.89,3.54-3.53.74-.3,1.55-.47,2.39-.47s1.65.17,2.39.47c1.61.64,2.89,1.92,3.54,3.53.3.74.46,1.54.46,2.39Z"/><path d="M42.46,3.53l-16.3,16.31c-.65-1.61-1.93-2.89-3.54-3.53L38.93,0l3.53,3.53Z"/><path d="M18.84,15.31c-1.61.64-2.89,1.92-3.54,3.53L0,3.53,3.53,0l15.31,15.31Z"/></svg>